<svg id="Capa_1" data-name="Capa 1" xmlns="http://www.w3.org/2000/svg" viewBox="0 0 1894.46 499.35"><defs><style>.cls-1{fill:#ee7212;}.cls-2{fill:#0f4b81;}.cls-3{fill:#ef6a00;}</style></defs><path class="cls-1" d="M501.77,632.44a20.26,20.26,0,0,1-8.23-5.32l2.16-4.6a20.44,20.44,0,0,0,7.53,5,25.78,25.78,0,0,0,9.7,1.9c4.68,0,8.17-.92,10.51-2.78a8.78,8.78,0,0,0,3.5-7.22A7.63,7.63,0,0,0,525,614a12.66,12.66,0,0,0-4.65-3.1,72.44,72.44,0,0,0-7.68-2.38,80.64,80.64,0,0,1-9.4-3.1,15.47,15.47,0,0,1-6-4.56c-1.66-2-2.5-4.81-2.5-8.31a15.08,15.08,0,0,1,2.08-7.8,14.74,14.74,0,0,1,6.41-5.62,24.47,24.47,0,0,1,10.74-2.1,28.89,28.89,0,0,1,8.75,1.34,24.07,24.07,0,0,1,7.42,3.68l-1.86,4.76a24.61,24.61,0,0,0-7-3.52A24.18,24.18,0,0,0,514,582.1q-6.87,0-10.34,2.86a9.12,9.12,0,0,0-3.45,7.38,7.76,7.76,0,0,0,1.89,5.45,12.35,12.35,0,0,0,4.78,3.16c1.92.72,4.48,1.52,7.72,2.38a75.68,75.68,0,0,1,9.27,3,15.31,15.31,0,0,1,6,4.52,12.64,12.64,0,0,1,2.46,8.19,14.15,14.15,0,0,1-8.64,13.38,25.3,25.3,0,0,1-10.81,2.06A31.88,31.88,0,0,1,501.77,632.44Z" transform="translate(-14.67 -150.66)"/><path class="cls-1" d="M543.19,581a4.15,4.15,0,0,1-1.12-2.9,4,4,0,0,1,1.12-2.81,3.82,3.82,0,0,1,5.52,0,3.91,3.91,0,0,1,1.12,2.77,4.24,4.24,0,0,1-1.12,3,3.77,3.77,0,0,1-5.52,0Zm.08,10.5h5.3V634h-5.3Z" transform="translate(-14.67 -150.66)"/><path class="cls-1" d="M564.7,632.88a19,19,0,0,1-6.81-3.76l2.37-4.52a19.72,19.72,0,0,0,6.2,3.44,23.11,23.11,0,0,0,7.76,1.34c3.58,0,6.21-.6,7.93-1.82a5.91,5.91,0,0,0,2.58-5.12,4.85,4.85,0,0,0-1.42-3.68,9.34,9.34,0,0,0-3.57-2,47.34,47.34,0,0,0-5.74-1.33,59.5,59.5,0,0,1-7.68-2,11.22,11.22,0,0,1-5-3.44,10.14,10.14,0,0,1-2.05-6.7,10.73,10.73,0,0,1,4.09-8.71q4.11-3.39,11.42-3.4a26.75,26.75,0,0,1,7.59,1.1,20,20,0,0,1,6.26,2.86l-2.32,4.59a18.72,18.72,0,0,0-11.55-3.64c-3.38,0-5.94.64-7.64,1.94a6.06,6.06,0,0,0-2.58,5.08A5.22,5.22,0,0,0,566,607a9,9,0,0,0,3.62,2.14,58.23,58.23,0,0,0,6,1.42,64.33,64.33,0,0,1,7.53,1.94A11.05,11.05,0,0,1,588,615.8a9.61,9.61,0,0,1,2,6.46,10.52,10.52,0,0,1-4.28,8.84c-2.86,2.18-6.81,3.26-11.89,3.26A27.45,27.45,0,0,1,564.7,632.88Z" transform="translate(-14.67 -150.66)"/><path class="cls-1" d="M620.43,631.4a9.67,9.67,0,0,1-3.69,2.22,14.19,14.19,0,0,1-4.58.76c-3.68,0-6.52-1.08-8.5-3.22s-3-5.2-3-9.12V596.37h-7v-4.83h7v-9.28H606v9.28h11.94v4.83H606v25.35a8.4,8.4,0,0,0,1.76,5.78,6.35,6.35,0,0,0,5,2,9,9,0,0,0,3.18-.56,7.71,7.71,0,0,0,2.64-1.62Z" transform="translate(-14.67 -150.66)"/><path class="cls-1" d="M662.79,614.53H630a15.67,15.67,0,0,0,4.7,10.69,14.88,14.88,0,0,0,10.73,4.08,15.87,15.87,0,0,0,6.72-1.42,14.72,14.72,0,0,0,5.3-4.16l3,3.72a16.85,16.85,0,0,1-6.51,5.16,20.71,20.71,0,0,1-8.62,1.78,20.38,20.38,0,0,1-10.69-2.78,19.35,19.35,0,0,1-7.28-7.72,23.41,23.41,0,0,1-2.62-11.13,24.35,24.35,0,0,1,2.5-11.14,19,19,0,0,1,6.86-7.67,18.84,18.84,0,0,1,19.57,0,18.63,18.63,0,0,1,6.77,7.63,24.52,24.52,0,0,1,2.46,11.18ZM634.35,600A15.94,15.94,0,0,0,630,610.25H657.8A15.94,15.94,0,0,0,653.44,600a13.58,13.58,0,0,0-19.09,0Z" transform="translate(-14.67 -150.66)"/><path class="cls-1" d="M734.18,595.8c2.8,3.05,4.22,7.59,4.22,13.55V634h-5.3V609.93q0-6.63-2.94-10.1c-2-2.32-4.74-3.48-8.32-3.48a12,12,0,0,0-9.61,4.08q-3.51,4.08-3.5,11.26V634h-5.3V609.91q0-6.63-2.94-10.1t-8.39-3.48a12,12,0,0,0-9.58,4.08Q679,604.49,679,611.67v22.27h-5.3V591.48h5.08v7.75a14.72,14.72,0,0,1,5.81-6,17.15,17.15,0,0,1,8.58-2.1,15.81,15.81,0,0,1,8.53,2.26,13.43,13.43,0,0,1,5.4,6.69,15.89,15.89,0,0,1,6.22-6.57,18.09,18.09,0,0,1,9.27-2.38Q730,591.22,734.18,595.8Z" transform="translate(-14.67 -150.66)"/><path class="cls-1" d="M778.3,595.36q4.1,4.15,4.09,12.31V634h-5.07v-6.62a12.47,12.47,0,0,1-5.26,5.16,17.22,17.22,0,0,1-8.24,1.86q-6.57,0-10.43-3.4a11.36,11.36,0,0,1-3.88-9,11.21,11.21,0,0,1,3.62-8.71c2.42-2.2,6.25-3.32,11.51-3.32H777.1v-2.58c0-3.66-.94-6.44-2.84-8.36s-4.66-2.86-8.28-2.86a19.28,19.28,0,0,0-7.15,1.34,17.77,17.77,0,0,0-5.9,3.68l-2.38-4.28a21.07,21.07,0,0,1,7.16-4.23,25.73,25.73,0,0,1,8.79-1.5Q774.18,591.2,778.3,595.36Zm-6,32.28a13.2,13.2,0,0,0,4.78-6.42v-6.93H764.8q-10.06,0-10.07,7.59a7.14,7.14,0,0,0,2.62,5.86c1.74,1.42,4.17,2.14,7.31,2.14A13.3,13.3,0,0,0,772.32,627.64Z" transform="translate(-14.67 -150.66)"/><path class="cls-1" d="M852.1,574.09V634H847v-8.4a16.82,16.82,0,0,1-6.3,6.54,17.34,17.34,0,0,1-8.83,2.26,18.67,18.67,0,0,1-17-10.42,26,26,0,0,1,0-22.43,18.69,18.69,0,0,1,7-7.63,19,19,0,0,1,10-2.7,17.43,17.43,0,0,1,8.61,2.14,16.85,16.85,0,0,1,6.3,6.25v-25.5Zm-12.34,53.15a14.07,14.07,0,0,0,5.22-5.86,20.57,20.57,0,0,0,0-17.27,14.2,14.2,0,0,0-5.22-5.86,13.67,13.67,0,0,0-7.41-2.06,13.91,13.91,0,0,0-7.5,2.06,14.07,14.07,0,0,0-5.22,5.86,20.67,20.67,0,0,0,0,17.27,14.07,14.07,0,0,0,5.22,5.86,14.52,14.52,0,0,0,14.91,0Z" transform="translate(-14.67 -150.66)"/><path class="cls-1" d="M901,614.53h-32.8a15.67,15.67,0,0,0,4.7,10.69,14.88,14.88,0,0,0,10.73,4.08,15.87,15.87,0,0,0,6.72-1.42,14.72,14.72,0,0,0,5.3-4.16l3,3.72a16.85,16.85,0,0,1-6.51,5.16,20.71,20.71,0,0,1-8.62,1.78,20.38,20.38,0,0,1-10.69-2.78,19.35,19.35,0,0,1-7.28-7.72,23.41,23.41,0,0,1-2.62-11.13,24.35,24.35,0,0,1,2.5-11.14,19,19,0,0,1,6.86-7.67,18.88,18.88,0,0,1,19.59,0,18.63,18.63,0,0,1,6.77,7.63,24.52,24.52,0,0,1,2.46,11.18ZM872.57,600a15.94,15.94,0,0,0-4.36,10.22H896A15.94,15.94,0,0,0,891.66,600a13.58,13.58,0,0,0-19.09,0Z" transform="translate(-14.67 -150.66)"/><path class="cls-2" d="M976.18,577.46V634h-4.54l-33.56-45.84V634h-5.52v-56.5h4.56l33.62,45.84V577.46Z" transform="translate(-14.67 -150.66)"/><path class="cls-2" d="M1026.21,614.53h-32.8a15.71,15.71,0,0,0,4.69,10.69,14.91,14.91,0,0,0,10.74,4.08,15.87,15.87,0,0,0,6.72-1.42,14.69,14.69,0,0,0,5.29-4.16l3,3.72a17,17,0,0,1-6.51,5.16,20.71,20.71,0,0,1-8.62,1.78A20.36,20.36,0,0,1,998,631.6a19.35,19.35,0,0,1-7.28-7.72,23.41,23.41,0,0,1-2.62-11.13,24.35,24.35,0,0,1,2.5-11.14,19,19,0,0,1,6.86-7.67,18.88,18.88,0,0,1,19.59,0,18.77,18.77,0,0,1,6.77,7.63,24.52,24.52,0,0,1,2.46,11.18ZM997.77,600a15.94,15.94,0,0,0-4.36,10.22h27.8a16,16,0,0,0-4.35-10.22,12.85,12.85,0,0,0-9.58-3.92A12.71,12.71,0,0,0,997.77,600Z" transform="translate(-14.67 -150.66)"/><path class="cls-2" d="M1073.41,591.52V628.8q0,10.82-4.88,16c-3.26,3.48-8.16,5.2-14.73,5.2a30.58,30.58,0,0,1-10.34-1.74,20.9,20.9,0,0,1-7.93-4.8l2.67-4.36a20,20,0,0,0,6.9,4.28,24,24,0,0,0,8.54,1.54c5,0,8.61-1.26,10.95-3.76s3.5-6.39,3.5-11.65V624.1a16.4,16.4,0,0,1-6.46,6.14,18.63,18.63,0,0,1-8.83,2.1,19.74,19.74,0,0,1-10-2.62,18.64,18.64,0,0,1-7.07-7.34,22,22,0,0,1-2.58-10.69,21.73,21.73,0,0,1,2.58-10.66,18.36,18.36,0,0,1,7-7.25,19.77,19.77,0,0,1,10.06-2.58,18.48,18.48,0,0,1,9,2.18,17,17,0,0,1,6.5,6.29v-8.15ZM1061,625.3a13.83,13.83,0,0,0,5.34-5.54,16.87,16.87,0,0,0,1.9-8.07,16.7,16.7,0,0,0-1.9-8,13.89,13.89,0,0,0-5.3-5.5,16,16,0,0,0-15.35,0,13.64,13.64,0,0,0-5.3,5.5,16.74,16.74,0,0,0-1.9,8.08,16.93,16.93,0,0,0,1.9,8.07,13.74,13.74,0,0,0,5.3,5.54,14.9,14.9,0,0,0,7.64,2A15.06,15.06,0,0,0,1061,625.3Z" transform="translate(-14.67 -150.66)"/><path class="cls-2" d="M1094.06,631.6a19.48,19.48,0,0,1-7.16-7.72,25,25,0,0,1,0-22.27,19.92,19.92,0,0,1,27.59-7.67,18.9,18.9,0,0,1,7.11,7.67,25.32,25.32,0,0,1,0,22.27,19.43,19.43,0,0,1-7.11,7.72,20.16,20.16,0,0,1-20.43,0Zm17.71-4.36a13.85,13.85,0,0,0,5.18-5.86,21.08,21.08,0,0,0,0-17.27,14.06,14.06,0,0,0-25.39,0,20.57,20.57,0,0,0,0,17.27,14.07,14.07,0,0,0,5.22,5.86,13.85,13.85,0,0,0,7.49,2.06A14.08,14.08,0,0,0,1111.77,627.24Z" transform="translate(-14.67 -150.66)"/><path class="cls-2" d="M1140.83,631.64a19,19,0,0,1-7.19-7.72,23.63,23.63,0,0,1-2.62-11.17,23.19,23.19,0,0,1,2.62-11.14,19.28,19.28,0,0,1,7.19-7.67,19.94,19.94,0,0,1,10.4-2.74,18.9,18.9,0,0,1,9,2.14,15.53,15.53,0,0,1,6.3,6.25l-4,2.9a12.76,12.76,0,0,0-4.92-4.72,13.73,13.73,0,0,0-6.47-1.58,14.34,14.34,0,0,0-7.64,2.06,14.11,14.11,0,0,0-5.3,5.86,20.76,20.76,0,0,0,0,17.31,14.11,14.11,0,0,0,5.3,5.82,14.39,14.39,0,0,0,7.64,2.06,13.64,13.64,0,0,0,6.47-1.54,12.38,12.38,0,0,0,4.92-4.68l4,2.9a15.53,15.53,0,0,1-6.34,6.26,18.94,18.94,0,0,1-9,2.14A20,20,0,0,1,1140.83,631.64Z" transform="translate(-14.67 -150.66)"/><path class="cls-2" d="M1176.9,581a4.15,4.15,0,0,1-1.12-2.9,4,4,0,0,1,1.12-2.81,3.57,3.57,0,0,1,2.75-1.2,3.64,3.64,0,0,1,2.76,1.16,3.91,3.91,0,0,1,1.12,2.77,4.24,4.24,0,0,1-1.12,3,3.61,3.61,0,0,1-2.76,1.2A3.5,3.5,0,0,1,1176.9,581Zm.08,10.5h5.29V634H1177Z" transform="translate(-14.67 -150.66)"/><path class="cls-2" d="M1202.84,631.6a19.39,19.39,0,0,1-7.15-7.72,25,25,0,0,1,0-22.27,19.25,19.25,0,0,1,7.15-7.67,20.41,20.41,0,0,1,20.43,0,18.86,18.86,0,0,1,7.12,7.67,25.32,25.32,0,0,1,0,22.27,19.38,19.38,0,0,1-7.12,7.72,20.16,20.16,0,0,1-20.43,0Zm17.71-4.36a13.85,13.85,0,0,0,5.18-5.86,21,21,0,0,0,0-17.27,14.06,14.06,0,0,0-25.39,0,20.57,20.57,0,0,0,0,17.27,14.19,14.19,0,0,0,5.22,5.86,13.91,13.91,0,0,0,7.5,2.06A14,14,0,0,0,1220.55,627.24Z" transform="translate(-14.67 -150.66)"/><path class="cls-2" d="M1245.16,632.88a19.08,19.08,0,0,1-6.82-3.76l2.38-4.52a19.72,19.72,0,0,0,6.2,3.44,23.11,23.11,0,0,0,7.76,1.34c3.57,0,6.23-.6,7.93-1.82a5.91,5.91,0,0,0,2.58-5.12,4.85,4.85,0,0,0-1.42-3.68,9.31,9.31,0,0,0-3.58-2,47.57,47.57,0,0,0-5.73-1.33,59.5,59.5,0,0,1-7.68-2,11.22,11.22,0,0,1-5-3.44,10.09,10.09,0,0,1-2.06-6.7,10.74,10.74,0,0,1,4.1-8.71q4.11-3.39,11.42-3.4a26.85,26.85,0,0,1,7.59,1.1,20,20,0,0,1,6.26,2.86l-2.32,4.59a18.74,18.74,0,0,0-11.55-3.64c-3.38,0-5.94.64-7.64,1.94a6.06,6.06,0,0,0-2.58,5.08,5.22,5.22,0,0,0,1.46,3.88,8.86,8.86,0,0,0,3.62,2.14,58.23,58.23,0,0,0,6,1.42,64.87,64.87,0,0,1,7.53,1.94,10.94,10.94,0,0,1,4.84,3.31,9.61,9.61,0,0,1,2,6.46,10.53,10.53,0,0,1-4.3,8.84q-4.29,3.27-11.89,3.26A27.25,27.25,0,0,1,1245.16,632.88Z" transform="translate(-14.67 -150.66)"/><path class="cls-2" d="M781,386.76c0,11.91,0,22.75-1.16,33.58-5.59,62.27-48.35,112-140.78,111.83s-135-50.08-140.37-112.37c-1.08-10.83-1.06-21.67-1-33.58l.44-235.56,47,.08L544.71,382c0,11.92,0,23.29,1,33.05,4.28,47.11,35.4,80.22,93.38,80.32s89.21-32.87,93.69-80c1.12-9.74,1.14-21.11,1.16-33l.44-231.22,47,.08Z" transform="translate(-14.67 -150.66)"/><path class="cls-2" d="M1042.06,320.11l-49.23-.1c-6.5-33.58-27.25-53.67-61.17-53.73-32.83-.06-48.18,17.77-48.22,42.7-.06,28.7,24,40.12,63.35,50.47,66.71,17.46,98.37,43.52,98.27,92.26-.1,54.15-46.64,81.14-107.9,81-59.63-.12-105-27.27-113.61-92.28l49.24.1c7.57,41.72,34.34,56.39,67.72,56.45,31.19.06,56.38-14,56.42-41.57s-19.61-42.28-68.27-55.38c-51.93-14.17-93.47-35.38-93.37-85.73.1-52.54,40.64-83.86,100.27-83.76C1000.66,230.68,1036.15,267.58,1042.06,320.11Z" transform="translate(-14.67 -150.66)"/><path class="cls-2" d="M1346.13,632.08l-47-.1.28-152.17-21.93,30.83c-16.43,13.51-47.07,22.65-76.62,22.61-84.77-.16-131.69-63.07-131.55-147,.2-106.15,67-155.3,142-155.16,24.07,0,54.69,7.13,69.42,19.09l19.09,28.2.08-39.54,47,.1Zm-46.56-247,0-15.71c.14-74.18-46.85-102.43-88.41-102.51-50.88-.1-90.34,38.82-90.48,114.08-.12,65,29.33,116.48,87.3,116.6C1256.14,497.6,1299.41,467.36,1299.57,385Z" transform="translate(-14.67 -150.66)"/><path class="cls-2" d="M1566.84,485.19,1550.93,516c-19.71,13.49-44.88,17.79-72.79,17.73-52.51-.1-93.47-28.89-93.37-81.94.12-65,49.42-98.47,163.18-98.25l18.59,0,0-7.58c0-12.45,0-23.83-1-34.66-2.14-26.55-17.41-43.9-56.25-44-39.38-.08-59.11,21-62.47,60.53l-49.24-.1c4.5-61.19,47.78-96.31,111.77-96.19,68.92.14,97.85,28.88,102.69,76,1.08,11.37,1.6,25.45,1.56,37.9l-.2,107.77c0,21.67,1,41.16,5.33,73.12l-47-.1Zm-.42-67.69.06-29.24c-79.84-6.12-130.2,10.59-130.3,59.87-.06,34.66,22.33,49.85,57.9,49.93C1537.83,498.12,1566.32,469.48,1566.42,417.5Z" transform="translate(-14.67 -150.66)"/><path class="cls-2" d="M1789.33,551.14c-23.63,60.61-54.88,89.25-101.91,89.15-10.4,0-17,0-24.07-1.12l.08-37.9c7.12.56,12,.56,17,.58,29,.06,48.16-12.35,63-50.23l3.84-10.28L1632.37,239.49l53.05.1,85.94,252.52,86.35-252.2,51.42.1Z" transform="translate(-14.67 -150.66)"/><path class="cls-3" d="M85.32,331.93c-.12.2-.26.4-.38.6-18,29.3-23.44,60.29-24.8,91.81-.6,13.93-.4,28-.1,42,.08,3.8.16,7.62.24,11.41,0,1.84.08,3.7.1,5.54.9,50.14-12.14,67.69-20.47,73.78a6.3,6.3,0,0,1-9.46-2.43c-6.88-15.22-23.37-60.25-11.75-121.6,1.2-6.34,2.68-12.84,4.53-19.49h0c.6-2.22,1.26-4.46,1.94-6.72a226.7,226.7,0,0,1,14.1-35.34,207.88,207.88,0,0,1,28.82-43.24l4.06-3.94c2.58-22.47,13.45-48.47,13.45-48.47,11.5-28.25,40.38-68.21,84.12-91.46a21.83,21.83,0,0,1,22,.74c25.79,16.55,33,43.48,30.48,64.61-1.77,15.31-8.89,27.37-13.13,33.34a75.5,75.5,0,0,0-12.45,31.77c-12,114.84,126,153.66,179.87,77.62,47.09-66.45,2.28-120.28-7.78-131a.77.77,0,0,0-1.32.7c4.76,24.63-5.5,47.92-9.07,55.06a.77.77,0,0,1-1.44-.28c-9.64-82.46-67.89-122-87.26-133a.86.86,0,0,1,.66-1.56c69.35,17.95,107.45,47.58,115,53.92a.7.7,0,0,0,1.14-.64l-3.7-24.21a.68.68,0,0,1,1-.68c63.91,39.64,108.43,142.77,46.42,238-53.39,82-144.15,80.16-170,76C198,514.78,156.39,468.76,156.37,468.74h0c-40.84-49.48-46.94-98.57-43.1-134.83a14.3,14.3,0,0,0-5.46-14.62,2,2,0,0,0-3.14,1c-26.52,80,9,131.26,46.82,183.91,37.52,52.26,37.74,78.6,34.7,89.5a5.5,5.5,0,0,1-8.29,3.11c-18-11.71-77-55.89-94.74-141.78-9.47-45.86-2.37-88.56,8.14-119.22l.32-.9a3.5,3.5,0,0,0-6.26-3Z" transform="translate(-14.67 -150.66)"/></svg>