<svg id="Capa_1" data-name="Capa 1" xmlns="http://www.w3.org/2000/svg" viewBox="0 0 887.36 887.36"><defs><style>.cls-1{fill:#ef6a00;stroke:#ef6a00;stroke-miterlimit:10;stroke-width:1.81px;}.cls-2{fill:#fff;}</style></defs><rect class="cls-1" x="0.91" y="0.91" width="885.55" height="885.55" rx="24.22"/><path class="cls-2" d="M678.56,323.5H529c-16.86,0-30.65,17.26-30.65,38.35V601.68c0,21.09,13.79,38.35,30.65,38.35H678.56c16.85,0,30.64-17.26,30.64-38.35V361.85C709.2,340.76,695.41,323.5,678.56,323.5ZM559.91,367.61h98.41c14.12,0,25.67,14.45,25.67,32.12h0a8.19,8.19,0,0,1-8.19,8.19H542.43a8.19,8.19,0,0,1-8.18-8.19h0C534.25,382.06,545.8,367.61,559.91,367.61Zm98.41,224.75H559.91c-14.11,0-25.66-14.45-25.66-32.12v-82A25.71,25.71,0,0,1,560,452.54h98.3A25.72,25.72,0,0,1,684,478.25v82C684,577.91,672.44,592.36,658.32,592.36Z" transform="translate(-56.32 -56.32)"/><path class="cls-2" d="M579.1,512.64A17.94,17.94,0,1,0,564.46,498,17.95,17.95,0,0,0,579.1,512.64Z" transform="translate(-56.32 -56.32)"/><path class="cls-2" d="M585.31,529.19A17.94,17.94,0,1,0,600,543.83,17.95,17.95,0,0,0,585.31,529.19Z" transform="translate(-56.32 -56.32)"/><path class="cls-2" d="M637.21,529.19a17.94,17.94,0,1,0,14.64,14.64A18,18,0,0,0,637.21,529.19Z" transform="translate(-56.32 -56.32)"/><path class="cls-2" d="M637.21,477.28a17.94,17.94,0,1,0,14.64,14.65A18,18,0,0,0,637.21,477.28Z" transform="translate(-56.32 -56.32)"/><path class="cls-2" d="M863,354.1c-12.49-28-31.16-51.84-52.83-68.47a2.48,2.48,0,0,0-4,2.15l1.63,20.81a1.6,1.6,0,0,1-2.68,1.31c-10.35-9.65-47.67-41.26-114.76-64.91a1.69,1.69,0,0,0-1.58,2.95C712,264.58,763.78,310.72,769,393.18a2.05,2.05,0,0,0,3.85.87c5.45-10.1,15-31.76,12.3-55.48a.93.93,0,0,1,.87-1,218.44,218.44,0,0,1,47.74,165.12C819.34,620.19,712.62,705.69,594.78,694,472.85,682,384.8,572.53,398.63,451.22a219.93,219.93,0,0,1,4.49-25.7c1.12-4.75,2.43-9.42,3.85-14,.68-2.16,1.42-4.43,2.19-6.76.53-1.53,1-3.08,1.6-4.6.06-.16.11-.32.17-.47.7-1.89,1.45-3.74,2.2-5.59a62.38,62.38,0,0,1,3.09-6.34c3.53-6.13,8-10.58,13.23-15.31,7.87-7.08,21.63-21.66,29-42.47,10.22-28.83,8.81-68.9-22.06-100.36a31,31,0,0,0-30.07-8.25c-69,18.5-122.57,65.44-147.82,101.46,0,0-23.58,33-34.39,63.67l-6.95,4.21a299.72,299.72,0,0,0-54.26,51.41,325.17,325.17,0,0,0-31.08,45.05c-1.69,2.95-3.33,5.88-4.88,8.8h0q-7.08,13.13-12.6,25.88c-35.8,82-27.31,150.2-22.54,174a9.18,9.18,0,0,0,12.6,6.7c13.65-5.91,37.49-26.41,52.27-96.88.54-2.59,1.09-5.19,1.62-7.79,1.11-5.35,2.21-10.73,3.32-16.09,4.09-19.79,8.29-39.55,13.61-58.89,12-43.75,29.64-85.46,64.21-120.79l.72-.74.08-.08a5,5,0,0,1,7.83,6.16l-.73,1.16c-24.57,39.63-48.2,97.23-49.62,164.58-2.64,125.76,65.5,206.51,87.21,229A8.13,8.13,0,0,0,298,800.26c7.68-14.6,15.34-51.71-20.2-136.22-36.12-85.91-66.72-163.23-4.06-266.86,1.1-1.81,4.78-3,8,2.54,5.7,10,4.29,14.43,4.05,15.26-7.72,23.51-12.44,53.16-12.26,85.73,0,5.11.06,10.19.28,15.25A310.17,310.17,0,0,0,286,589.55c2.32,8,5,15.76,7.91,23.45.37,1,.73,2,1.12,3h.07c42,107,141.55,187.13,264.8,197.82,169.11,14.66,320-109.7,338.3-278.46A311.68,311.68,0,0,0,863,354.1Z" transform="translate(-56.32 -56.32)"/></svg>