<svg id="Capa_1" data-name="Capa 1" xmlns="http://www.w3.org/2000/svg" viewBox="0 0 693.56 507.58"><defs><style>.cls-1{fill:#fff;}</style></defs><path class="cls-1" d="M634.55,298.49H506.88c-14.38,0-26.16,14.73-26.16,32.73V535.9c0,18,11.78,32.73,26.16,32.73H634.55c14.39,0,26.16-14.73,26.16-32.73V331.22C660.71,313.22,648.94,298.49,634.55,298.49ZM533.29,336.13h84c12.05,0,21.91,12.34,21.91,27.41h0a7,7,0,0,1-7,7H518.38a7,7,0,0,1-7-7h0C511.39,348.47,521.25,336.13,533.29,336.13Zm84,191.82h-84c-12,0-21.9-12.34-21.9-27.41v-70a22,22,0,0,1,22-21.95h83.9a22,22,0,0,1,22,21.95v70C639.19,515.61,629.33,528,617.28,528Z" transform="translate(-130 -210.4)"/><path class="cls-1" d="M549.67,459.91a15.31,15.31,0,1,0-12.5-12.5A15.32,15.32,0,0,0,549.67,459.91Z" transform="translate(-130 -210.4)"/><path class="cls-1" d="M555,474a15.31,15.31,0,1,0,12.49,12.5A15.33,15.33,0,0,0,555,474Z" transform="translate(-130 -210.4)"/><path class="cls-1" d="M599.27,474a15.31,15.31,0,1,0,12.49,12.5A15.33,15.33,0,0,0,599.27,474Z" transform="translate(-130 -210.4)"/><path class="cls-1" d="M599.27,429.73a15.31,15.31,0,1,0,12.49,12.5A15.33,15.33,0,0,0,599.27,429.73Z" transform="translate(-130 -210.4)"/><path class="cls-1" d="M792,324.6c-10.67-23.9-26.6-44.24-45.1-58.43a2.11,2.11,0,0,0-3.39,1.83l1.39,17.76a1.36,1.36,0,0,1-2.28,1.12c-8.84-8.24-40.69-35.22-98-55.41a1.45,1.45,0,0,0-1.35,2.53c19.75,14.2,64,53.58,68.38,124a1.75,1.75,0,0,0,3.28.74c4.65-8.63,12.79-27.11,10.5-47.35a.79.79,0,0,1,.74-.88A186.4,186.4,0,0,1,767,451.39C754.71,551.7,663.62,624.68,563.05,614.73,459,604.43,383.84,511,395.65,407.49a187.15,187.15,0,0,1,3.83-21.94c.95-4.05,2.07-8,3.28-12,.59-1.84,1.21-3.78,1.87-5.77.45-1.31.89-2.63,1.36-3.92l.15-.41c.6-1.6,1.24-3.18,1.88-4.77a51.22,51.22,0,0,1,2.64-5.4c3-5.24,6.8-9,11.29-13.07,6.72-6,18.46-18.49,24.76-36.25,8.73-24.6,7.52-58.81-18.82-85.66a26.45,26.45,0,0,0-25.67-7c-58.92,15.79-104.6,55.86-126.15,86.6,0,0-20.13,28.16-29.36,54.34l-5.93,3.59a255.72,255.72,0,0,0-46.31,43.88,278.29,278.29,0,0,0-26.53,38.45c-1.43,2.51-2.84,5-4.16,7.5h0c-4,7.48-7.59,14.84-10.75,22.09-30.56,70-23.31,128.2-19.24,148.51A7.84,7.84,0,0,0,144.54,622c11.64-5,32-22.55,44.6-82.69q.71-3.31,1.39-6.65c.95-4.56,1.88-9.15,2.83-13.73,3.49-16.89,7.07-33.75,11.61-50.26,10.25-37.34,25.3-72.94,54.81-103.09l.61-.63.08-.07a4.29,4.29,0,0,1,6.68,5.25l-.63,1c-21,33.82-41.14,83-42.35,140.46C221.92,618.91,280.07,687.83,298.6,707a6.93,6.93,0,0,0,11.14-1.62c6.56-12.46,13.09-44.14-17.24-116.26C261.68,515.8,235.55,449.82,289,361.37c.93-1.54,4.08-2.59,6.79,2.17,4.86,8.53,3.66,12.31,3.46,13-6.6,20.07-10.62,45.37-10.47,73.17,0,4.36.05,8.7.24,13a264.75,264.75,0,0,0,10.43,62.81c2,6.78,4.25,13.45,6.75,20,.32.86.63,1.73,1,2.59h.05c35.86,91.28,120.82,159.71,226,168.83C677.59,729.49,806.41,623.35,822,479.32A266.06,266.06,0,0,0,792,324.6Z" transform="translate(-130 -210.4)"/></svg>