<svg id="Capa_1" data-name="Capa 1" xmlns="http://www.w3.org/2000/svg" viewBox="0 0 1868.37 492.48"><defs><style>.cls-1{fill:#fff;}</style></defs><path class="cls-1" d="M506.21,628.86a19.82,19.82,0,0,1-8.13-5.26l2.12-4.54a20.06,20.06,0,0,0,7.43,4.89,25.52,25.52,0,0,0,9.56,1.88c4.6,0,8.07-.91,10.36-2.75A8.66,8.66,0,0,0,531,616a7.37,7.37,0,0,0-1.88-5.32,12.67,12.67,0,0,0-4.6-3.06,69.67,69.67,0,0,0-7.58-2.35,71.68,71.68,0,0,1-9.26-3.07,15.3,15.3,0,0,1-5.93-4.5c-1.65-2-2.45-4.75-2.45-8.2a14.67,14.67,0,0,1,2.06-7.67,14.43,14.43,0,0,1,6.32-5.53,24,24,0,0,1,10.58-2.07,28.69,28.69,0,0,1,8.65,1.32,24,24,0,0,1,7.31,3.61l-1.84,4.71a24.91,24.91,0,0,0-6.91-3.47,24.31,24.31,0,0,0-7.21-1.15c-4.52,0-7.9.95-10.17,2.82a9.06,9.06,0,0,0-3.43,7.29,7.55,7.55,0,0,0,1.88,5.37,12,12,0,0,0,4.71,3.09,76.69,76.69,0,0,0,7.61,2.35,73.25,73.25,0,0,1,9.17,3,15.31,15.31,0,0,1,5.92,4.45c1.63,2,2.43,4.69,2.43,8.1a13.94,13.94,0,0,1-8.54,13.16,25,25,0,0,1-10.67,2A31.66,31.66,0,0,1,506.21,628.86Z" transform="translate(-25.81 -153.76)"/><path class="cls-1" d="M547.05,578.15a4.06,4.06,0,0,1-1.11-2.86,4,4,0,0,1,1.11-2.79,3.52,3.52,0,0,1,2.73-1.2,3.64,3.64,0,0,1,2.72,1.16,3.76,3.76,0,0,1,1.1,2.74,4.2,4.2,0,0,1-1.1,2.95,3.69,3.69,0,0,1-5.45,0Zm.09,10.36h5.22v41.88h-5.22Z" transform="translate(-25.81 -153.76)"/><path class="cls-1" d="M568.27,629.3a18.88,18.88,0,0,1-6.73-3.7l2.36-4.46a19.32,19.32,0,0,0,6.1,3.39,22.76,22.76,0,0,0,7.66,1.32c3.53,0,6.13-.6,7.82-1.8a5.78,5.78,0,0,0,2.54-5,4.67,4.67,0,0,0-1.4-3.61,9,9,0,0,0-3.53-2,49.78,49.78,0,0,0-5.66-1.32,62.92,62.92,0,0,1-7.57-1.94,11,11,0,0,1-4.89-3.38,10,10,0,0,1-2-6.61,10.67,10.67,0,0,1,4-8.6c2.7-2.23,6.44-3.34,11.25-3.34a26.9,26.9,0,0,1,7.49,1.07,19.52,19.52,0,0,1,6.17,2.83l-2.27,4.54a18.35,18.35,0,0,0-11.39-3.59c-3.34,0-5.84.64-7.53,1.91a6,6,0,0,0-2.54,5,5.1,5.1,0,0,0,1.44,3.82,8.79,8.79,0,0,0,3.57,2.1,53.08,53.08,0,0,0,5.89,1.39,62.23,62.23,0,0,1,7.42,1.92,10.9,10.9,0,0,1,4.79,3.26,9.43,9.43,0,0,1,2,6.35,10.34,10.34,0,0,1-4.23,8.71q-4.23,3.23-11.72,3.22A27.5,27.5,0,0,1,568.27,629.3Z" transform="translate(-25.81 -153.76)"/><path class="cls-1" d="M623.25,627.83a9.65,9.65,0,0,1-3.63,2.19,14,14,0,0,1-4.52.76c-3.63,0-6.42-1-8.38-3.18s-2.93-5.11-2.93-9V593.3h-6.91v-4.76h6.91v-9.17H609v9.17h11.77v4.76H609v25a8.29,8.29,0,0,0,1.74,5.69,6.25,6.25,0,0,0,5,1.94,9,9,0,0,0,3.12-.55,7.77,7.77,0,0,0,2.6-1.59Z" transform="translate(-25.81 -153.76)"/><path class="cls-1" d="M665,611.2H632.64a15.46,15.46,0,0,0,4.63,10.54,14.6,14.6,0,0,0,10.58,4,15.66,15.66,0,0,0,6.63-1.39,14.4,14.4,0,0,0,5.22-4.1l2.95,3.65a16.76,16.76,0,0,1-6.44,5.1,21.61,21.61,0,0,1-19.05-1,19,19,0,0,1-7.16-7.6,23.14,23.14,0,0,1-2.58-11,24.1,24.1,0,0,1,2.46-11,18.47,18.47,0,0,1,6.77-7.55,17.82,17.82,0,0,1,9.68-2.7,17.63,17.63,0,0,1,9.63,2.7,18.44,18.44,0,0,1,6.69,7.51,24.34,24.34,0,0,1,2.44,11Zm-28-14.31a15.69,15.69,0,0,0-4.3,10.08h27.43a15.78,15.78,0,0,0-4.29-10.08,13.42,13.42,0,0,0-18.84,0Z" transform="translate(-25.81 -153.76)"/><path class="cls-1" d="M735.42,592.72q4.16,4.56,4.15,13.38v24.27h-5.22V606.66q0-6.54-2.91-9.95a10.13,10.13,0,0,0-8.19-3.43,11.85,11.85,0,0,0-9.5,4c-2.31,2.68-3.44,6.37-3.44,11.1v22h-5.22V606.66q0-6.54-2.91-9.95c-1.94-2.29-4.69-3.43-8.28-3.43a11.87,11.87,0,0,0-9.45,4c-2.34,2.68-3.49,6.37-3.49,11.1v22h-5.22V588.49h5v7.64a14.27,14.27,0,0,1,5.74-5.88,16.94,16.94,0,0,1,8.46-2.07,15.58,15.58,0,0,1,8.42,2.23,13.55,13.55,0,0,1,5.33,6.61,15.63,15.63,0,0,1,6.13-6.48,17.67,17.67,0,0,1,9.16-2.36Q731.28,588.18,735.42,592.72Z" transform="translate(-25.81 -153.76)"/><path class="cls-1" d="M778.91,592.29c2.7,2.73,4.05,6.79,4.05,12.14v25.94h-5v-6.52a12.49,12.49,0,0,1-5.18,5.1,17.09,17.09,0,0,1-8.13,1.83q-6.46,0-10.3-3.34A12.14,12.14,0,0,1,754.1,610q3.57-3.25,11.35-3.26h12.28V604.2c0-3.61-.93-6.36-2.78-8.23s-4.58-2.83-8.18-2.83a19,19,0,0,0-7,1.32,17.48,17.48,0,0,0-5.8,3.61l-2.36-4.21a20.36,20.36,0,0,1,7.06-4.17,25.87,25.87,0,0,1,8.67-1.46C772.35,588.18,776.23,589.55,778.91,592.29ZM773,624.12a13,13,0,0,0,4.7-6.34v-6.85H765.6c-6.63,0-9.93,2.5-9.93,7.49a7.09,7.09,0,0,0,2.58,5.78c1.71,1.4,4.13,2.1,7.2,2.1A12.83,12.83,0,0,0,773,624.12Z" transform="translate(-25.81 -153.76)"/><path class="cls-1" d="M851.7,571.3v59.07h-5v-8.28a16.47,16.47,0,0,1-6.21,6.44,17.06,17.06,0,0,1-8.71,2.23,18.52,18.52,0,0,1-9.85-2.7A18.73,18.73,0,0,1,815,620.5a25.71,25.71,0,0,1,0-22.12,18.28,18.28,0,0,1,6.91-7.51,18.63,18.63,0,0,1,9.85-2.66,17.3,17.3,0,0,1,8.5,2.1,16.48,16.48,0,0,1,6.21,6.17V571.32h5.2Zm-12.15,52.42a14,14,0,0,0,5.14-5.77,20.37,20.37,0,0,0,0-17.05,14.2,14.2,0,0,0-5.14-5.78,13.59,13.59,0,0,0-7.33-2,13.53,13.53,0,0,0-12.53,7.8,20.27,20.27,0,0,0,0,17.05,14.17,14.17,0,0,0,5.14,5.77,13.62,13.62,0,0,0,7.39,2A13.34,13.34,0,0,0,839.55,623.72Z" transform="translate(-25.81 -153.76)"/><path class="cls-1" d="M900,611.2H867.59a15.46,15.46,0,0,0,4.63,10.54,14.6,14.6,0,0,0,10.59,4,15.65,15.65,0,0,0,6.62-1.39,14.4,14.4,0,0,0,5.22-4.1l3,3.65a16.76,16.76,0,0,1-6.44,5.1,21.61,21.61,0,0,1-19-1,19.07,19.07,0,0,1-7.16-7.6,23.14,23.14,0,0,1-2.58-11,24.1,24.1,0,0,1,2.46-11,18.47,18.47,0,0,1,6.77-7.55,18.63,18.63,0,0,1,19.32,0,18.48,18.48,0,0,1,6.68,7.51,24.34,24.34,0,0,1,2.44,11Zm-28.07-14.31a15.74,15.74,0,0,0-4.3,10.08H895a15.78,15.78,0,0,0-4.29-10.08,13.42,13.42,0,0,0-18.84,0Z" transform="translate(-25.81 -153.76)"/><path class="cls-1" d="M974.07,574.65v55.72h-4.48l-33.08-45.22v45.22h-5.45V574.65h4.48l33.16,45.21V574.65Z" transform="translate(-25.81 -153.76)"/><path class="cls-1" d="M1023.42,611.2H991.06a15.34,15.34,0,0,0,4.64,10.54,14.64,14.64,0,0,0,10.59,4,15.65,15.65,0,0,0,6.62-1.39,14.4,14.4,0,0,0,5.22-4.1l2.93,3.65a16.72,16.72,0,0,1-6.43,5.1,20.34,20.34,0,0,1-8.51,1.75A20.12,20.12,0,0,1,995.58,628a19.16,19.16,0,0,1-7.17-7.6,23.14,23.14,0,0,1-2.58-11,24.1,24.1,0,0,1,2.46-11,18.47,18.47,0,0,1,6.77-7.55,18.63,18.63,0,0,1,19.32,0,18.34,18.34,0,0,1,6.68,7.51,24.28,24.28,0,0,1,2.44,11Zm-28-14.31A15.68,15.68,0,0,0,991.08,607h27.43a15.84,15.84,0,0,0-4.3-10.08,13.42,13.42,0,0,0-18.84,0Z" transform="translate(-25.81 -153.76)"/><path class="cls-1" d="M1070,588.51v36.78q0,10.68-4.81,15.81t-14.53,5.14a30.43,30.43,0,0,1-10.18-1.71,20.81,20.81,0,0,1-7.82-4.73l2.64-4.29a19.71,19.71,0,0,0,6.81,4.21,23.58,23.58,0,0,0,8.43,1.51c4.91,0,8.5-1.24,10.81-3.7s3.45-6.29,3.45-11.49v-5.33a16.12,16.12,0,0,1-6.36,6,18.41,18.41,0,0,1-8.71,2.06,19.33,19.33,0,0,1-9.89-2.58,18.26,18.26,0,0,1-7-7.24,21.72,21.72,0,0,1-2.54-10.55,21.44,21.44,0,0,1,2.54-10.5,18.17,18.17,0,0,1,7-7.17,19.56,19.56,0,0,1,9.93-2.53,18.56,18.56,0,0,1,8.9,2.14,16.55,16.55,0,0,1,6.39,6.21v-8h5Zm-12.2,33.32a13.66,13.66,0,0,0,5.26-5.45,16.55,16.55,0,0,0,1.88-8,16.33,16.33,0,0,0-1.88-7.93,13.7,13.7,0,0,0-5.22-5.4,15.83,15.83,0,0,0-15.15,0,13.44,13.44,0,0,0-5.22,5.4,17.83,17.83,0,0,0,0,15.94,13.7,13.7,0,0,0,5.22,5.45,14.72,14.72,0,0,0,7.54,2A15.39,15.39,0,0,0,1057.76,621.83Z" transform="translate(-25.81 -153.76)"/><path class="cls-1" d="M1090.33,628a19.32,19.32,0,0,1-7.06-7.6,24.65,24.65,0,0,1,0-22,18.86,18.86,0,0,1,7.06-7.55,20.06,20.06,0,0,1,20.14,0,18.76,18.76,0,0,1,7,7.55,25,25,0,0,1,0,22,19.47,19.47,0,0,1-27.16,7.6Zm17.46-4.3a13.85,13.85,0,0,0,5.12-5.77,20.77,20.77,0,0,0,0-17.05,13.47,13.47,0,0,0-12.51-7.8,13.53,13.53,0,0,0-12.53,7.8,20.27,20.27,0,0,0,0,17.05,14.17,14.17,0,0,0,5.14,5.77,13.62,13.62,0,0,0,7.39,2A13.45,13.45,0,0,0,1107.79,623.72Z" transform="translate(-25.81 -153.76)"/><path class="cls-1" d="M1136.48,628.06a18.82,18.82,0,0,1-7.1-7.6,24.74,24.74,0,0,1,0-22,18.75,18.75,0,0,1,7.1-7.55,19.62,19.62,0,0,1,10.25-2.71,18.65,18.65,0,0,1,8.94,2.11,15.36,15.36,0,0,1,6.21,6.17l-3.9,2.87a12.79,12.79,0,0,0-4.85-4.66,13.4,13.4,0,0,0-6.4-1.55,14.37,14.37,0,0,0-7.53,2,13.9,13.9,0,0,0-5.22,5.78,20.36,20.36,0,0,0,0,17.09,14,14,0,0,0,5.22,5.74,14.18,14.18,0,0,0,7.53,2,13.72,13.72,0,0,0,6.4-1.51,12.25,12.25,0,0,0,4.85-4.62l3.9,2.87a15.4,15.4,0,0,1-6.25,6.17,18.71,18.71,0,0,1-8.9,2.1A19.88,19.88,0,0,1,1136.48,628.06Z" transform="translate(-25.81 -153.76)"/><path class="cls-1" d="M1172,578.15a4,4,0,0,1-1.12-2.86,4,4,0,0,1,1.12-2.79,3.5,3.5,0,0,1,2.72-1.2,3.67,3.67,0,0,1,2.73,1.16,3.8,3.8,0,0,1,1.09,2.74,4.23,4.23,0,0,1-1.09,2.95,3.69,3.69,0,0,1-5.45,0Zm.08,10.36h5.22v41.88h-5.22Z" transform="translate(-25.81 -153.76)"/><path class="cls-1" d="M1197.61,628a19.32,19.32,0,0,1-7.06-7.6,24.65,24.65,0,0,1,0-22,18.86,18.86,0,0,1,7.06-7.55,20.06,20.06,0,0,1,20.14,0,18.76,18.76,0,0,1,7,7.55,25,25,0,0,1,0,22,19.47,19.47,0,0,1-27.16,7.6Zm17.46-4.3a13.85,13.85,0,0,0,5.12-5.77,20.77,20.77,0,0,0,0-17.05,13.47,13.47,0,0,0-12.51-7.8,13.53,13.53,0,0,0-12.53,7.8,20.27,20.27,0,0,0,0,17.05,14.17,14.17,0,0,0,5.14,5.77,13.62,13.62,0,0,0,7.39,2A13.38,13.38,0,0,0,1215.07,623.72Z" transform="translate(-25.81 -153.76)"/><path class="cls-1" d="M1239.34,629.3a18.88,18.88,0,0,1-6.73-3.7l2.35-4.46a19.37,19.37,0,0,0,6.11,3.39,22.76,22.76,0,0,0,7.66,1.32c3.53,0,6.13-.6,7.82-1.8a5.78,5.78,0,0,0,2.54-5,4.67,4.67,0,0,0-1.4-3.61,9,9,0,0,0-3.53-2,50.31,50.31,0,0,0-5.66-1.32,62.92,62.92,0,0,1-7.57-1.94,11,11,0,0,1-4.89-3.38,10,10,0,0,1-2-6.61,10.67,10.67,0,0,1,4-8.6c2.7-2.23,6.44-3.34,11.25-3.34a26.9,26.9,0,0,1,7.49,1.07,19.52,19.52,0,0,1,6.17,2.83l-2.27,4.54a18.35,18.35,0,0,0-11.39-3.59c-3.34,0-5.84.64-7.53,1.91a6,6,0,0,0-2.54,5,5.1,5.1,0,0,0,1.44,3.82,8.79,8.79,0,0,0,3.57,2.1,53.38,53.38,0,0,0,5.88,1.39,62,62,0,0,1,7.43,1.92,10.9,10.9,0,0,1,4.79,3.26,9.43,9.43,0,0,1,2,6.35,10.34,10.34,0,0,1-4.23,8.71q-4.23,3.23-11.72,3.22A27.5,27.5,0,0,1,1239.34,629.3Z" transform="translate(-25.81 -153.76)"/><path class="cls-1" d="M781.59,386.58c0,11.75,0,22.44-1.13,33.11C775,481.09,732.78,530.15,641.62,530S508.48,480.59,503.2,419.17c-1.06-10.69-1-21.36-1-33.1l.43-232.31,46.39.08-.43,228c0,11.74,0,23,1,32.59,4.23,46.48,34.92,79.11,92.09,79.21s88-32.4,92.4-78.86c1.1-9.62,1.12-20.83,1.14-32.57l.43-228,46.4.09Z" transform="translate(-25.81 -153.76)"/><path class="cls-1" d="M1039,320.85l-48.54-.08c-6.42-33.13-26.87-52.92-60.33-53-32.36-.06-47.51,17.54-47.55,42.1-.06,28.3,23.65,39.57,62.47,49.78,65.78,17.21,97,42.91,96.92,91-.1,53.41-46,80-106.41,79.91-58.8-.1-103.52-26.89-112-91l48.54.09c7.48,41.13,33.89,55.6,66.79,55.66,30.75.06,55.58-13.79,55.64-41s-19.33-41.69-67.32-54.61c-51.23-14-92.17-34.88-92.09-84.56.1-51.8,40.08-82.7,98.88-82.59C998.2,232.64,1033.2,269,1039,320.85Z" transform="translate(-25.81 -153.76)"/><path class="cls-1" d="M1338.92,628.49l-46.39-.08.29-150.07-21.63,30.41c-16.21,13.31-46.44,22.35-75.56,22.29-83.61-.17-129.88-62.21-129.74-145,.21-104.68,66.11-153.14,140-153,23.74,0,53.93,7,68.48,18.83l18.83,27.8.08-39,46.4.08ZM1293,384.87l0-15.48c.15-73.16-46.19-101-87.2-101.11-50.17-.1-89.07,38.29-89.22,112.53-.12,64.08,28.92,114.87,86.09,115C1250.18,495.89,1292.84,466,1293,384.87Z" transform="translate(-25.81 -153.76)"/><path class="cls-1" d="M1556.58,483.63l-15.71,30.42c-19.44,13.31-44.27,17.54-71.78,17.48-51.78-.1-92.19-28.48-92.09-80.82.12-64.08,48.73-97.11,160.94-96.9l18.35,0,0-7.47c0-12.28,0-23.49-1-34.18-2.11-26.17-17.17-43.28-55.48-43.36-38.84-.08-58.3,20.72-61.6,59.69l-48.55-.08c4.44-60.35,47.12-95,110.23-94.86,68,.12,96.51,28.48,101.28,75,1,11.21,1.57,25.1,1.55,37.38l-.21,106.27c0,21.36,1,40.59,5.26,72.11l-46.39-.09Zm-.41-66.75.06-28.83c-78.74-6-128.4,10.44-128.5,59-.06,34.17,22,49.18,57.09,49.24C1528,496.4,1556.08,468.15,1556.17,416.88Z" transform="translate(-25.81 -153.76)"/><path class="cls-1" d="M1776,548.68c-23.3,59.77-54.11,88-100.51,87.92-10.26,0-16.72,0-23.74-1.11l.07-37.38c7,.54,11.86.56,16.71.56,28.59.06,47.49-12.2,62.13-49.55l3.79-10.14L1621.24,241.31l52.32.1,84.76,249,85.16-248.7,50.71.11Z" transform="translate(-25.81 -153.76)"/><path class="cls-1" d="M95.5,332.49c-.13.21-.25.39-.37.6C77.42,362,72,392.55,70.65,423.63c-.6,13.75-.39,27.6-.1,41.44.08,3.76.16,7.52.24,11.25,0,1.82.09,3.66.11,5.47.88,49.45-12,66.77-20.19,72.77a6.19,6.19,0,0,1-9.33-2.41c-6.77-15-23.05-59.42-11.6-119.93C31,426,32.43,419.57,34.26,413h0c.6-2.19,1.24-4.39,1.92-6.62a223.3,223.3,0,0,1,13.89-34.86,205.69,205.69,0,0,1,28.42-42.64l4-3.88c2.53-22.15,13.27-47.8,13.27-47.8,11.35-27.86,39.83-67.26,82.94-90.21a21.58,21.58,0,0,1,21.72.74c25.42,16.31,32.5,42.89,30.07,63.71-1.76,15.11-8.8,27-13,32.9a74.29,74.29,0,0,0-12.28,31.31C193.45,428.92,329.48,467.2,382.65,392.2,429.08,326.67,384.9,273.57,375,263a.76.76,0,0,0-1.3.7c4.7,24.29-5.41,47.27-8.94,54.3a.75.75,0,0,1-1.42-.26c-9.5-81.34-66.93-120.31-86.05-131.12a.84.84,0,0,1,.67-1.53c68.37,17.71,106,46.91,113.45,53.17a.69.69,0,0,0,1.11-.64l-3.63-23.88a.66.66,0,0,1,1-.66c63,39.09,106.93,140.79,45.78,234.74C383,528.74,293.51,526.91,268,522.78c-61.36-9.95-102.39-55.33-102.39-55.33h0c-40.29-48.79-46.29-97.21-42.5-133a14.68,14.68,0,0,0-.84-8.73,14.52,14.52,0,0,0-4.54-5.67,2,2,0,0,0-3.1.95c-26.17,78.92,8.88,129.44,46.17,181.37,37,51.53,37.21,77.52,34.22,88.27a5.43,5.43,0,0,1-8.19,3.08c-17.75-11.56-75.93-55.13-93.42-139.85-9.34-45.24-2.33-87.35,8-117.58l.31-.89a3.44,3.44,0,0,0-6.17-2.91Z" transform="translate(-25.81 -153.76)"/></svg>