<svg id="Capa_1" data-name="Capa 1" xmlns="http://www.w3.org/2000/svg" viewBox="0 0 924.81 924.81"><defs><style>.cls-1{fill:#ef6a00;stroke:#ef6a00;stroke-miterlimit:10;stroke-width:1.81px;}.cls-2{fill:#fff;}</style></defs><rect class="cls-1" x="0.91" y="0.91" width="923" height="923" rx="24.22"/><path class="cls-2" d="M686.11,316H530.19c-17.57,0-31.94,18-31.94,40V606c0,22,14.37,40,31.94,40H686.11c17.57,0,31.94-18,31.94-40V356C718.05,334,703.68,316,686.11,316ZM562.45,362H665c14.71,0,26.75,15.06,26.75,33.48h0a8.53,8.53,0,0,1-8.54,8.53h-139a8.54,8.54,0,0,1-8.54-8.53h0C535.69,377.07,547.73,362,562.45,362ZM665,596.27H562.45c-14.72,0-26.76-15.07-26.76-33.48V477.34a26.81,26.81,0,0,1,26.81-26.81H665a26.81,26.81,0,0,1,26.81,26.81v85.45C691.77,581.2,679.73,596.27,665,596.27Z" transform="translate(-37.59 -37.59)"/><path class="cls-2" d="M582.45,513.18a18.7,18.7,0,1,0-15.26-15.27A18.71,18.71,0,0,0,582.45,513.18Z" transform="translate(-37.59 -37.59)"/><path class="cls-2" d="M588.91,530.42a18.7,18.7,0,1,0,15.27,15.27A18.71,18.71,0,0,0,588.91,530.42Z" transform="translate(-37.59 -37.59)"/><path class="cls-2" d="M643,530.42a18.7,18.7,0,1,0,15.26,15.27A18.72,18.72,0,0,0,643,530.42Z" transform="translate(-37.59 -37.59)"/><path class="cls-2" d="M643,476.32a18.7,18.7,0,1,0,15.27,15.26A18.71,18.71,0,0,0,643,476.32Z" transform="translate(-37.59 -37.59)"/><path class="cls-2" d="M878.4,347.93c-13-29.19-32.49-54-55.07-71.36a2.58,2.58,0,0,0-4.15,2.24l1.7,21.68a1.67,1.67,0,0,1-2.79,1.37c-10.79-10.06-49.69-43-119.62-67.66a1.76,1.76,0,0,0-1.64,3.08c24.12,17.35,78.11,65.44,83.5,151.38a2.14,2.14,0,0,0,4,.91C790,379,800,356.46,797.16,331.74a1,1,0,0,1,.9-1.07,227.66,227.66,0,0,1,49.77,172.1c-15,122.51-126.22,211.62-249,199.47C471.71,689.66,379.93,575.59,394.35,449.16A229.44,229.44,0,0,1,399,422.37c1.17-4.95,2.53-9.82,4-14.62.72-2.25,1.48-4.62,2.29-7.05.55-1.6,1.08-3.21,1.66-4.79l.18-.5c.73-2,1.52-3.89,2.3-5.82a61.62,61.62,0,0,1,3.22-6.61c3.68-6.39,8.3-11,13.79-16,8.2-7.37,22.55-22.57,30.24-44.27,10.66-30,9.18-71.81-23-104.6a32.3,32.3,0,0,0-31.34-8.6c-72,19.28-127.75,68.21-154.07,105.75,0,0-24.58,34.4-35.85,66.37l-7.24,4.39a312.53,312.53,0,0,0-56.56,53.58,338.75,338.75,0,0,0-32.39,47c-1.76,3.07-3.47,6.13-5.09,9.16v0c-4.92,9.12-9.27,18.11-13.13,27C60.73,608.22,69.58,679.31,74.55,704.12a9.56,9.56,0,0,0,13.13,7c14.22-6.17,39.08-27.53,54.48-101q.85-4.05,1.69-8.12c1.16-5.58,2.3-11.18,3.46-16.77,4.26-20.62,8.63-41.22,14.18-61.39C174,478.26,192.39,434.78,228.42,398l.75-.77.09-.08a5.24,5.24,0,0,1,8.16,6.41l-.76,1.22c-25.61,41.3-50.25,101.33-51.72,171.53C182.18,707.35,253.2,791.52,275.83,815a8.46,8.46,0,0,0,13.6-2c8-15.21,16-53.9-21-142-37.65-89.55-69.55-170.13-4.24-278.14,1.15-1.89,5-3.17,8.29,2.64,5.94,10.42,4.47,15,4.23,15.9-8.05,24.51-13,55.41-12.78,89.36q0,8,.29,15.9a323.13,323.13,0,0,0,12.73,76.7c2.42,8.28,5.2,16.42,8.25,24.44.39,1.05.76,2.1,1.17,3.15h.07C330.18,732.4,433.94,816,562.4,827.11,738.66,842.4,896,712.77,915,536.88A324.89,324.89,0,0,0,878.4,347.93Z" transform="translate(-37.59 -37.59)"/></svg>