<svg id="Capa_1" data-name="Capa 1" xmlns="http://www.w3.org/2000/svg" viewBox="0 0 916.43 856"><defs><style>.cls-1{fill:#fff;}</style></defs><path class="cls-1" d="M187.17,381.06l-.77,1.25c-37,60.31-48.28,124.12-51.08,189-1.26,28.69-.82,57.59-.21,86.49.16,7.84.35,15.69.5,23.5.09,3.8.15,7.61.22,11.39,1.85,103.2-25,139.33-42.12,151.87a12.92,12.92,0,0,1-19.45-5c-14.14-31.32-48.1-124-24.2-250.3,2.46-13,5.53-26.4,9.33-40.12v0c1.25-4.56,2.6-9.17,4-13.83a467,467,0,0,1,29-72.74,428.63,428.63,0,0,1,59.32-89l8.35-8.1c5.3-46.23,27.68-99.78,27.68-99.78,23.68-58.13,83.12-140.39,173.13-188.26a45,45,0,0,1,45.31,1.53c53.08,34.05,67.83,89.51,62.76,133-3.68,31.52-18.33,56.32-27.05,68.65a141.08,141.08,0,0,0-15.41,28.4c-5,12.35-9,25.26-10.22,37-24.64,236.4,259.28,316.31,370.22,159.76,96.92-136.77,4.69-247.58-16-269.57a1.61,1.61,0,0,0-2.73,1.46c9.8,50.7-11.31,98.65-18.67,113.31a1.58,1.58,0,0,1-3-.58C726.29,180.51,606.4,99.18,566.52,76.58a1.75,1.75,0,0,1,1.36-3.2c142.73,37,221.15,97.91,236.77,111A1.44,1.44,0,0,0,807,183l-7.6-49.84a1.39,1.39,0,0,1,2.09-1.39C933,213.35,1024.63,425.65,897,621.69c-109.9,168.81-296.7,165-349.91,156.38C419,757.32,333.39,662.6,333.37,662.58h0C249.3,560.75,236.76,459.68,244.68,385a30.71,30.71,0,0,0-1.75-18.22A30.18,30.18,0,0,0,233.46,355a4.13,4.13,0,0,0-6.44,2c-54.6,164.73,18.53,270.15,96.36,378.56,77.21,107.55,77.67,161.77,71.41,184.21a11.31,11.31,0,0,1-17.08,6.41c-37-24.1-158.47-115-195-291.86-19.49-94.4-4.88-182.27,16.76-245.39l.65-1.86a7.2,7.2,0,0,0-12.88-6.08Z" transform="translate(-41.77 -71.97)"/></svg>