<svg id="Capa_1" data-name="Capa 1" xmlns="http://www.w3.org/2000/svg" viewBox="0 0 949.79 949.79"><defs><style>.cls-1{fill:#ef6a00;}.cls-2{fill:#fff;}</style></defs><circle class="cls-1" cx="474.9" cy="474.9" r="474.9"/><path class="cls-2" d="M288.11,419.69l-.52.84c-25,40.88-32.72,84.12-34.62,128.07-.85,19.44-.55,39-.14,58.62.11,5.3.24,10.62.34,15.92.06,2.58.1,5.16.15,7.72,1.25,69.94-16.93,94.43-28.55,102.92a8.75,8.75,0,0,1-13.18-3.4c-9.58-21.23-32.59-84-16.4-169.63,1.67-8.84,3.75-17.89,6.33-27.19h0c.84-3.09,1.76-6.22,2.71-9.37a316.93,316.93,0,0,1,19.65-49.3,290.69,290.69,0,0,1,40.2-60.33l5.66-5.48c3.6-31.33,18.76-67.62,18.76-67.62,16.05-39.4,56.33-95.15,117.33-127.59a30.48,30.48,0,0,1,30.71,1c36,23.08,46,60.67,42.53,90.12-2.49,21.36-12.42,38.17-18.33,46.52a95.83,95.83,0,0,0-10.44,19.25c-3.39,8.37-6.1,17.12-6.93,25.06-16.7,160.21,175.72,214.36,250.9,108.27,65.69-92.7,3.18-167.79-10.83-182.69a1.09,1.09,0,0,0-1.86,1c6.65,34.35-7.66,66.85-12.65,76.79a1.07,1.07,0,0,1-2-.39c-13.43-115-94.68-170.16-121.7-185.48a1.19,1.19,0,0,1,.92-2.17c96.72,25.05,149.87,66.36,160.45,75.2a1,1,0,0,0,1.58-.9L703,251.68a1,1,0,0,1,1.42-1c89.16,55.3,151.24,199.17,64.74,332-74.49,114.4-201.08,111.82-237.14,106-86.79-14.06-144.82-78.26-144.83-78.27h0c-57-69-65.48-137.5-60.11-188.09A20.82,20.82,0,0,0,325.9,410a20.44,20.44,0,0,0-6.42-8,2.8,2.8,0,0,0-4.36,1.34c-37,111.63,12.56,183.08,65.3,256.55,52.33,72.89,52.64,109.64,48.4,124.84a7.67,7.67,0,0,1-11.58,4.35c-25.11-16.33-107.39-78-132.13-197.8-13.22-64-3.31-123.53,11.36-166.3l.43-1.26a4.88,4.88,0,0,0-8.73-4.13Z" transform="translate(-25.1 -25.1)"/></svg>